<?xml version="1.0" encoding="UTF-8" standalone="no"?><!DOCTYPE svg PUBLIC "-//W3C//DTD SVG 1.1//EN" "http://www.w3.org/Graphics/SVG/1.1/DTD/svg11.dtd"><svg width="100%" height="100%" viewBox="0 0 168 48" version="1.1" xmlns="http://www.w3.org/2000/svg" xmlnsXlink="http://www.w3.org/1999/xlink" xml:space="preserve" xmlnsserif="http://www.serif.com/" style="fill-rule:evenodd;clip-rule:evenodd;stroke-linejoin:round;stroke-miterlimit:2;"><rect id="Site-logo" serifid="Site logo" x="-0" y="-0" width="168" height="48" style="fill:none;"/><g><g transform="matrix(1.71273,0,0,1.71273,-524.705,-65.0964)"><g transform="matrix(16,0,0,16,340.181,57.9304)"><path d="M0.086,-0.698l0.107,0l0.255,0.614l0.256,-0.614l0.099,0l0,0.698l-0.069,-0l0,-0.629l-0.002,0l-0.254,0.629l-0.059,-0l-0.262,-0.629l-0.002,0l0,0.629l-0.069,-0l0,-0.698Z" style="fill:#1c3f52;fill-rule:nonzero;"/></g><g transform="matrix(16,0,0,16,354.405,57.9304)"><path d="M0.182,-0.247l0.302,0l-0.151,-0.385l-0.151,0.385Zm0.117,-0.451l0.078,0l0.277,0.698l-0.072,-0l-0.075,-0.187l-0.351,-0l-0.074,0.187l-0.069,-0l0.286,-0.698Z" style="fill:#1c3f52;fill-rule:nonzero;"/></g><g transform="matrix(16,0,0,16,365.077,57.9304)"><path d="M0.088,-0.698l0.18,0c0.133,-0.002 0.202,0.058 0.205,0.181c-0.001,0.045 -0.016,0.082 -0.045,0.109c-0.029,0.028 -0.066,0.045 -0.11,0.052l-0,0.002c0.027,0.003 0.046,0.012 0.058,0.026c0.007,0.007 0.012,0.015 0.017,0.025c0.005,0.01 0.01,0.021 0.015,0.033l0.119,0.27l-0.076,0l-0.101,-0.236c-0.019,-0.043 -0.038,-0.07 -0.058,-0.081c-0.01,-0.006 -0.021,-0.01 -0.034,-0.011c-0.013,-0.001 -0.027,-0.001 -0.044,-0.001l-0.057,0l-0,0.329l-0.069,0l-0,-0.698Zm0.069,0.309l0.073,0c0.043,0.001 0.083,-0.009 0.118,-0.028c0.036,-0.019 0.055,-0.053 0.056,-0.1c-0,-0.029 -0.005,-0.051 -0.014,-0.068c-0.009,-0.017 -0.022,-0.029 -0.038,-0.036c-0.016,-0.008 -0.035,-0.013 -0.056,-0.015c-0.021,-0.001 -0.044,-0.002 -0.068,-0.002l-0.071,0l-0,0.249Z" style="fill:#1c3f52;fill-rule:nonzero;"/></g><g transform="matrix(16,0,0,16,373.973,57.9304)"><path d="M0.06,-0.698l0.467,0l0,0.132l-0.281,0l0,0.153l0.269,0l0,0.132l-0.269,0l0,0.281l-0.186,-0l0,-0.698Z" style="fill:#1c3f52;fill-rule:nonzero;"/></g><g transform="matrix(16,0,0,16,382.869,57.9304)"><path d="M0.06,-0.698l0.293,0l0.148,0.464l0.002,0l0.155,-0.464l0.282,0l-0,0.698l-0.182,-0l0.003,-0.536l-0.002,0l-0.178,0.536l-0.171,-0l-0.17,-0.536l-0.002,0l0.004,0.536l-0.182,-0l0,-0.698Z" style="fill:#1c3f52;fill-rule:nonzero;"/></g></g><path d="M27.31,37.5c-1.144,-7.402 -2.29,-22.564 -3.434,-28.811c-0.23,-1.255 -0.475,-2.185 -0.705,-2.688c-0.246,-0.539 -0.576,-0.814 -0.822,-0.937c-0.489,-0.244 -0.983,-0.225 -1.472,0.133c-0.201,0.147 -0.439,0.408 -0.639,0.826c-0.232,0.483 -0.477,1.31 -0.709,2.399c-1.029,4.841 -2.062,15.449 -3.092,22.135c-0.235,1.527 -0.469,2.843 -0.704,3.826c-0.165,-0.413 -0.336,-0.877 -0.467,-1.322c-0.773,-2.612 -1.547,-6.181 -2.32,-8.561c-0.388,-1.197 -0.807,-2.123 -1.195,-2.609c-0.533,-0.666 -1.473,-1.037 -2.585,-1.083c-1.86,-0.078 -4.234,0.69 -4.234,0.69c-0.633,0.208 -0.978,0.891 -0.77,1.523c0.208,0.633 0.891,0.978 1.523,0.77c0,-0 1.418,-0.468 2.775,-0.561c0.382,-0.026 0.759,-0.026 1.083,0.044c0.128,0.028 0.255,0.038 0.324,0.124c0.531,0.664 1.004,2.453 1.535,4.469c0.916,3.478 1.874,7.585 2.789,9.023c0.558,0.876 1.265,1.12 1.823,1.053c0.409,-0.05 0.89,-0.264 1.299,-0.878c0.479,-0.719 1.03,-3.03 1.509,-6.141c0.948,-6.159 1.895,-15.666 2.843,-20.854c1.119,6.896 2.236,21.569 3.354,28.391c0.336,2.05 0.74,3.463 1.076,3.954c0.374,0.546 0.841,0.688 1.215,0.688c0.374,-0 0.841,-0.142 1.215,-0.688c0.336,-0.491 0.74,-1.904 1.076,-3.954c1.118,-6.822 2.235,-21.495 3.354,-28.391c0.948,5.188 1.895,14.695 2.843,20.854c0.479,3.111 1.03,5.422 1.509,6.141c0.411,0.616 0.889,0.827 1.286,0.877c0.559,0.07 1.273,-0.175 1.812,-1.085c0.848,-1.433 1.691,-5.525 2.609,-8.988c0.338,-1.274 0.688,-2.454 1.069,-3.345c0.192,-0.45 0.37,-0.815 0.581,-1.026c0.234,-0.234 0.587,-0.34 0.978,-0.415c0.561,-0.107 1.198,-0.114 1.838,-0.074c2.097,0.131 4.226,0.789 4.226,0.789c0.637,0.196 1.313,-0.162 1.509,-0.798c0.196,-0.636 -0.161,-1.312 -0.798,-1.508l-6.012,-0.911c-1.422,0.054 -2.679,0.443 -3.447,1.21c-0.499,0.5 -1.003,1.446 -1.44,2.677c-0.851,2.396 -1.587,5.989 -2.303,8.619c-0.104,0.381 -0.234,0.776 -0.364,1.142c-0.223,-0.964 -0.445,-2.223 -0.668,-3.672c-1.03,-6.686 -2.062,-17.294 -3.092,-22.135c-0.253,-1.185 -0.525,-2.062 -0.777,-2.533c-0.597,-1.116 -1.446,-1.123 -2.043,-0.825c-0.246,0.123 -0.576,0.398 -0.822,0.937c-0.23,0.503 -0.475,1.433 -0.705,2.688c-1.144,6.247 -2.29,21.409 -3.434,28.811Z" style="fill:url(#_Linear1);"/></g><defs><linearGradient id="_Linear1" x1="0" y1="0" x2="1" y2="0" gradientUnits="userSpaceOnUse" gradientTransform="matrix(46.7536,0,0,-35.7744,5.30834,24.0089)"><stop offset="0" style="stop-color:#bb0056;stop-opacity:1"/><stop offset="0.58" style="stop-color:#f58220;stop-opacity:1"/><stop offset="1" style="stop-color:#fdb913;stop-opacity:1"/></linearGradient></defs></svg>